<mxfile host="app.diagrams.net" modified="2024-01-19T04:34:46.321Z" agent="Mozilla/5.0 (Windows NT 10.0; Win64; x64) AppleWebKit/537.36 (KHTML, like Gecko) Chrome/120.0.0.0 Safari/537.36" version="22.1.21" etag="proYsFBBC8b8JCusXU4Y" type="github">
  <diagram name="페이지-1" id="_W1y1FGJqFL61t6Za5zC">
    <mxGraphModel>
      <root>
        <mxCell id="0" />
        <mxCell id="1" parent="0" />
      </root>
    </mxGraphModel>
  </diagram>
</mxfile>
